<?xml version="1.0" encoding="UTF-8"?>
<svg version="1.1" xmlns="http://www.w3.org/2000/svg" width="499" height="500">
<path d="M0 0 C1.65102708 0.69786591 3.31937554 1.35439913 4.98925781 2.00585938 C20.28937343 8.02692913 34.26893583 16.55756698 47.82519531 25.77148438 C48.46650391 26.20638184 49.1078125 26.6412793 49.76855469 27.08935547 C57.63539175 32.46366877 64.85162647 38.26610566 71.82519531 44.77148438 C73.07151798 45.83829554 74.32141795 46.90094441 75.57519531 47.95898438 C85.54938381 56.67881245 94.78719228 66.24209377 102.82519531 76.77148438 C103.33518066 77.42681152 103.84516602 78.08213867 104.37060547 78.75732422 C122.38888405 101.9830776 137.24403148 128.55681538 145.82519531 156.77148438 C146.0760791 157.58343262 146.32696289 158.39538086 146.58544922 159.23193359 C153.89982473 183.27133574 156.56998876 206.88127321 156.38769531 231.95898438 C156.3837677 233.20474243 156.37984009 234.45050049 156.37579346 235.73400879 C156.29222764 254.55592619 155.45593814 272.46728833 150.82519531 290.77148438 C150.58994141 291.74214844 150.3546875 292.7128125 150.11230469 293.71289062 C147.05089421 306.11033802 142.76756019 318.00847211 137.82519531 329.77148438 C137.21224609 331.23908203 137.21224609 331.23908203 136.58691406 332.73632812 C127.57825257 353.32313189 115.90854488 372.31083276 101.82519531 389.77148438 C101.33148438 390.38378906 100.83777344 390.99609375 100.32910156 391.62695312 C89.21752939 405.26798888 76.84239782 418.10352494 62.82519531 428.77148438 C61.82746094 429.53976562 60.82972656 430.30804688 59.80175781 431.09960938 C54.66463648 435.00744475 49.4761739 438.78162996 44.05566406 442.28710938 C42.77972262 443.13624729 41.51377344 444.00205776 40.28198242 444.9140625 C36.05224734 448.04145234 31.74787565 450.49362126 27.01269531 452.77148438 C25.59600368 453.46544382 24.17933695 454.15945411 22.76269531 454.85351562 C21.745625 455.34779053 21.745625 455.34779053 20.70800781 455.85205078 C18.29684078 457.02949568 15.90496326 458.24368159 13.51269531 459.45898438 C11.9522784 460.23402589 10.3898004 461.00493289 8.82519531 461.77148438 C8.01566406 462.16851562 7.20613281 462.56554687 6.37207031 462.97460938 C-9.08899762 470.28852774 -25.52298235 475.04617284 -42.17480469 478.77148438 C-43.12355469 478.98611328 -44.07230469 479.20074219 -45.04980469 479.421875 C-78.35130146 486.54821432 -116.0713308 485.41773578 -149.17480469 477.77148438 C-150.18913574 477.54154785 -151.2034668 477.31161133 -152.24853516 477.07470703 C-171.15383631 472.6585737 -189.21830125 465.76746044 -206.37402344 456.71118164 C-208.33324973 455.68880339 -210.30841365 454.70286432 -212.28808594 453.72070312 C-228.58203558 445.59237127 -243.40284041 434.63314393 -257.17480469 422.77148438 C-258.34269531 421.76988281 -258.34269531 421.76988281 -259.53417969 420.74804688 C-270.96236759 410.70169868 -281.99218951 399.92632594 -291.17480469 387.77148438 C-291.65095215 387.14999512 -292.12709961 386.52850586 -292.61767578 385.88818359 C-310.10956053 362.94131331 -324.89602468 336.51642384 -333.17480469 308.77148438 C-333.42568848 307.93246582 -333.67657227 307.09344727 -333.93505859 306.22900391 C-340.99292434 282.09101586 -343.93210637 258.13164546 -343.73730469 233.02148438 C-343.73337708 231.8489209 -343.72944946 230.67635742 -343.72540283 229.46826172 C-343.63880274 211.07277639 -342.56305234 193.68152401 -338.17480469 175.77148438 C-337.93955078 174.76408203 -337.70429688 173.75667969 -337.46191406 172.71875 C-329.53980478 139.26256947 -314.01984709 106.37485284 -292.17480469 79.77148438 C-291.03398437 78.34449219 -291.03398437 78.34449219 -289.87011719 76.88867188 C-278.03562492 62.18769359 -265.1619214 48.29854042 -250.17480469 36.77148438 C-249.5620166 36.2982373 -248.94922852 35.82499023 -248.31787109 35.33740234 C-240.18095428 29.07318908 -231.99061877 23.05834907 -223.17480469 17.77148438 C-222.24667969 17.20042969 -221.31855469 16.629375 -220.36230469 16.04101562 C-212.55146132 11.33581344 -204.46722905 7.52432637 -196.17480469 3.77148438 C-195.25054687 3.32933594 -194.32628906 2.8871875 -193.37402344 2.43164062 C-134.94734057 -25.31881725 -59.15007226 -25.23657981 0 0 Z " fill="#E7E0EE" transform="translate(343.1748046875,17.228515625)"/>
<path d="M0 0 C0.65814697 0.01619385 1.31629395 0.0323877 1.99438477 0.04907227 C9.91467971 0.53662478 16.28379244 4.1664894 23.26757812 7.66992188 C24.67620117 8.34958008 24.67620117 8.34958008 26.11328125 9.04296875 C26.95673096 9.46602295 27.80018066 9.88907715 28.66918945 10.32495117 C30.97635162 11.23842624 30.97635162 11.23842624 33.10620117 10.25512695 C34.80188317 9.13130316 36.49487218 8.00341854 38.1875 6.875 C45.39557039 3.2777266 55.28828344 3.91079799 63.0078125 5.6953125 C65.49039506 6.62141697 67.70039807 7.6865263 70 9 C70.76570312 9.42410156 71.53140625 9.84820312 72.3203125 10.28515625 C84.53844876 17.71958153 91.15854935 29.32697652 95.1015625 42.75 C96.08767394 46.87876564 97 50.74706509 97 55 C98.299375 55.20625 99.59875 55.4125 100.9375 55.625 C107.57019576 57.1000948 112.61378219 60.61378219 117.375 65.375 C122.7207549 74.01045022 123.1916881 83.07975865 122 93 C119.78418819 102.27989559 115.63298997 112.53081184 109.3984375 119.890625 C107.51955867 122.72468803 107.26970098 125.27664082 106.75 128.625 C104.85032692 138.18304099 100.06786171 145.51385404 92 151 C84.18202989 155.91461607 78.98620267 155 69 155 C69 168.86 69 182.72 69 197 C73.62 197 78.24 197 83 197 C88.04577885 197.41002983 93.00250312 198.19856281 98 199 C99.23105469 199.17144531 100.46210938 199.34289062 101.73046875 199.51953125 C123.12185824 202.8994144 144.56793165 211.71530422 161 226 C161.78375 226.66386719 162.5675 227.32773437 163.375 228.01171875 C187.68650564 249.170326 203.02449154 277.40909131 217 306 C217.32178223 306.65613281 217.64356445 307.31226563 217.97509766 307.98828125 C221.9471999 316.13241692 225.45362527 324.27935106 228 333 C228.28101563 333.67160156 228.56203125 334.34320313 228.8515625 335.03515625 C229 337 229 337 227.375 339.296875 C226.59125 340.10640625 225.8075 340.9159375 225 341.75 C224.15824219 342.636875 223.31648438 343.52375 222.44921875 344.4375 C221.64097656 345.283125 220.83273437 346.12875 220 347 C218.92966272 348.24329576 217.86648136 349.49280887 216.8125 350.75 C208.08860461 360.72884089 198.51483228 369.93258558 188 378 C186.49953125 379.15628906 186.49953125 379.15628906 184.96875 380.3359375 C179.83309508 384.239554 174.64788077 388.01214896 169.23046875 391.515625 C167.95452731 392.36476291 166.68857813 393.23057338 165.45678711 394.14257812 C161.22705203 397.26996797 156.92268033 399.72213688 152.1875 402 C150.77080837 402.69395945 149.35414163 403.38796974 147.9375 404.08203125 C146.92042969 404.57630615 146.92042969 404.57630615 145.8828125 405.08056641 C143.47164546 406.2580113 141.07976795 407.47219721 138.6875 408.6875 C137.12708309 409.46254151 135.56460509 410.23344851 134 411 C133.19046875 411.39703125 132.3809375 411.7940625 131.546875 412.203125 C116.08580707 419.51704336 99.65182234 424.27468846 83 428 C82.05125 428.21462891 81.1025 428.42925781 80.125 428.65039062 C46.82350323 435.77672995 9.10347389 434.6462514 -24 427 C-25.01433105 426.77006348 -26.02866211 426.54012695 -27.07373047 426.30322266 C-45.97903162 421.88708932 -64.04349656 414.99597606 -81.19921875 405.93969727 C-83.15844504 404.91731901 -85.13360896 403.93137994 -87.11328125 402.94921875 C-103.40723089 394.82088689 -118.22803573 383.86165955 -132 372 C-132.77859375 371.33226562 -133.5571875 370.66453125 -134.359375 369.9765625 C-139.76362553 365.2257671 -144.92918456 360.22746038 -150.0625 355.1875 C-150.73055664 354.54087402 -151.39861328 353.89424805 -152.08691406 353.22802734 C-152.70920898 352.61008301 -153.33150391 351.99213867 -153.97265625 351.35546875 C-154.53218994 350.80528076 -155.09172363 350.25509277 -155.66821289 349.68823242 C-157.21810523 347.72352013 -157.72064999 346.48330707 -158 344 C-157.55029297 341.88452148 -157.55029297 341.88452148 -156.7421875 339.62109375 C-156.44908691 338.78835938 -156.15598633 337.955625 -155.85400391 337.09765625 C-155.53093262 336.21980469 -155.20786133 335.34195312 -154.875 334.4375 C-154.54806152 333.53 -154.22112305 332.6225 -153.88427734 331.6875 C-151.94308132 326.36852752 -149.89413984 321.14754338 -147.4453125 316.0390625 C-146.21136698 313.44444193 -145.03045144 310.83762992 -143.8671875 308.2109375 C-143.47837402 307.33501953 -143.08956055 306.45910156 -142.68896484 305.55664062 C-141.91871891 303.81939599 -141.15067345 302.08117338 -140.38525391 300.34179688 C-137.87368437 294.71214875 -135.05889588 289.34921304 -132 284 C-131.19863875 282.55631138 -130.39785868 281.1123 -129.59765625 279.66796875 C-118.257024 259.49539635 -105.343 237.2177489 -85 225 C-83.98808594 224.37996094 -82.97617188 223.75992188 -81.93359375 223.12109375 C-57.60650251 208.71652408 -30.52740537 197.94046391 -2 197 C-1.67 191.39 -1.34 185.78 -1 180 C-2.98 179.67 -4.96 179.34 -7 179 C-16.97754933 174.76188735 -23.35103035 167.41126237 -27.68896484 157.59985352 C-36.87224536 133.82339484 -31.74662427 100.98713841 -23.80859375 77.60546875 C-23.04832698 75.15572026 -22.63546538 72.92024938 -22.375 70.375 C-22 67 -22 67 -20 64 C-21.03060547 62.46279297 -21.03060547 62.46279297 -22.08203125 60.89453125 C-22.99224954 59.53389567 -23.90240233 58.17321627 -24.8125 56.8125 C-25.26431641 56.13896484 -25.71613281 55.46542969 -26.18164062 54.77148438 C-33.06198583 44.47607731 -37.95714648 34.79423856 -36 22 C-33.04499861 13.17829256 -28.13944125 6.35714765 -19.9140625 1.859375 C-13.81763977 -0.87779439 -6.53981962 -0.26376497 0 0 Z " fill="#6876AA" transform="translate(218,68)"/>
<path d="M0 0 C0.65814697 0.01619385 1.31629395 0.0323877 1.99438477 0.04907227 C9.91467971 0.53662478 16.28379244 4.1664894 23.26757812 7.66992188 C24.20666016 8.12302734 25.14574219 8.57613281 26.11328125 9.04296875 C26.95673096 9.46602295 27.80018066 9.88907715 28.66918945 10.32495117 C30.97635162 11.23842624 30.97635162 11.23842624 33.10620117 10.25512695 C34.80188317 9.13130316 36.49487218 8.00341854 38.1875 6.875 C45.39557039 3.2777266 55.28828344 3.91079799 63.0078125 5.6953125 C65.49039506 6.62141697 67.70039807 7.6865263 70 9 C71.14855469 9.63615234 71.14855469 9.63615234 72.3203125 10.28515625 C84.53844876 17.71958153 91.15854935 29.32697652 95.1015625 42.75 C96.08767394 46.87876564 97 50.74706509 97 55 C98.299375 55.20625 99.59875 55.4125 100.9375 55.625 C107.57019576 57.1000948 112.61378219 60.61378219 117.375 65.375 C122.7207549 74.01045022 123.1916881 83.07975865 122 93 C119.78418819 102.27989559 115.63298997 112.53081184 109.3984375 119.890625 C107.51955867 122.72468803 107.26970098 125.27664082 106.75 128.625 C104.85032692 138.18304099 100.06786171 145.51385404 92 151 C84.18202989 155.91461607 78.98620267 155 69 155 C69 169.19 69 183.38 69 198 C70.32 198.33 71.64 198.66 73 199 C79.54231566 207.08168405 80.00206486 215.94803689 79 226 C76.80815727 235.18812645 72.86734964 242.66253143 67 250 C66.06994141 251.24716797 66.06994141 251.24716797 65.12109375 252.51953125 C62.83176802 255.19673538 60.48817779 257.07987301 57.625 259.125 C56.70976562 259.78757812 55.79453125 260.45015625 54.8515625 261.1328125 C47.49771439 265.94807195 47.49771439 265.94807195 43.859375 266.07421875 C40.87170101 264.34814659 39.86453605 261.81807227 38.25 258.8125 C37.90783447 258.19117188 37.56566895 257.56984375 37.21313477 256.9296875 C35.77619799 254.31910462 34.36981523 251.69263929 32.96630859 249.06396484 C27.72803344 238.48456819 27.72803344 238.48456819 19 231 C14.23632368 229.94140526 11.51328391 231.02400789 7.5 233.5 C3.50977488 236.35113521 0.44667616 239.62760031 -2.58984375 243.4609375 C-3.05519531 243.96882812 -3.52054688 244.47671875 -4 245 C-4.66 245 -5.32 245 -6 245 C-6.2165625 245.52078125 -6.433125 246.0415625 -6.65625 246.578125 C-8.54369469 249.97991484 -10.98585585 252.79409409 -13.5 255.75 C-13.99886719 256.35199219 -14.49773437 256.95398438 -15.01171875 257.57421875 C-16.29418243 259.09048277 -17.64260271 260.55043376 -19 262 C-19.66 262 -20.32 262 -21 262 C-25.61071373 252.77857254 -22.23407618 236.25526784 -19.32421875 226.70703125 C-16.23735625 218.06563739 -12.18175616 210.51649869 -6.6875 203.1875 C-1.6747858 196.04171593 -1.40168057 188.47546003 -1 180 C-1.88945312 179.88527344 -2.77890625 179.77054688 -3.6953125 179.65234375 C-11.85982001 178.04067383 -18.38375142 172.73478461 -23.171875 166.078125 C-36.36648655 143.86155683 -33.09360345 112.15807285 -27 88 C-26.04973276 84.49573581 -24.97600892 81.04411967 -23.80859375 77.60546875 C-23.04832698 75.15572026 -22.63546538 72.92024938 -22.375 70.375 C-22 67 -22 67 -20 64 C-20.68707031 62.97519531 -21.37414062 61.95039063 -22.08203125 60.89453125 C-22.99224954 59.53389567 -23.90240233 58.17321627 -24.8125 56.8125 C-25.26431641 56.13896484 -25.71613281 55.46542969 -26.18164062 54.77148438 C-33.06198583 44.47607731 -37.95714648 34.79423856 -36 22 C-33.04499861 13.17829256 -28.13944125 6.35714765 -19.9140625 1.859375 C-13.81763977 -0.87779439 -6.53981962 -0.26376497 0 0 Z " fill="#F18361" transform="translate(218,68)"/>
<path d="M0 0 C0.65814697 0.01619385 1.31629395 0.0323877 1.99438477 0.04907227 C9.91467971 0.53662478 16.28379244 4.1664894 23.26757812 7.66992188 C24.20666016 8.12302734 25.14574219 8.57613281 26.11328125 9.04296875 C26.95673096 9.46602295 27.80018066 9.88907715 28.66918945 10.32495117 C30.97635162 11.23842624 30.97635162 11.23842624 33.10620117 10.25512695 C34.80188317 9.13130316 36.49487218 8.00341854 38.1875 6.875 C45.39557039 3.2777266 55.28828344 3.91079799 63.0078125 5.6953125 C65.49039506 6.62141697 67.70039807 7.6865263 70 9 C71.14855469 9.63615234 71.14855469 9.63615234 72.3203125 10.28515625 C84.53844876 17.71958153 91.15854935 29.32697652 95.1015625 42.75 C96.08767394 46.87876564 97 50.74706509 97 55 C98.299375 55.20625 99.59875 55.4125 100.9375 55.625 C107.57019576 57.1000948 112.61378219 60.61378219 117.375 65.375 C122.7207549 74.01045022 123.1916881 83.07975865 122 93 C119.58538348 103.11249653 114.7432263 112.38516055 109 121 C108.34 121 107.68 121 107 121 C106.88785156 119.948125 106.88785156 119.948125 106.7734375 118.875 C105.56762546 110.17423865 102.64927625 105.47550119 96.375 99.5 C90.58501059 96.92667137 84.3549503 96.8570507 78.33984375 98.90625 C77.48519531 99.2671875 76.63054687 99.628125 75.75 100 C66.42633492 103.74827458 56.35246753 103.22756667 47 99.875 C36.06996023 95.06524208 28.45504721 88.07801454 23.6640625 77.11328125 C23 75 23 75 23 71 C19.04 71 15.08 71 11 71 C11.33 69.35 11.66 67.7 12 66 C15.63 66 19.26 66 23 66 C23.15106778 61.35995373 23.15106778 61.35995373 22 57 C18.94914098 54.39416962 15.62383402 52.6883087 12 51 C11.01 50.505 11.01 50.505 10 50 C-1.34416031 49.00044787 -1.34416031 49.00044787 -11.421875 53.49609375 C-13.88568633 55.84403276 -15.94582124 58.28123399 -18 61 C-18.66 61.66 -19.32 62.32 -20 63 C-29.02557725 51.25517832 -36.93266297 40.63007061 -36.47265625 25.08984375 C-35.154519 16.47292996 -30.6203329 9.70556993 -23.9296875 4.3046875 C-16.58062895 -0.66410917 -8.59677724 -0.34672648 0 0 Z " fill="#020101" transform="translate(218,68)"/>
<path d="M0 0 C0.66 0 1.32 0 2 0 C2.17015625 0.65226562 2.3403125 1.30453125 2.515625 1.9765625 C4.65775991 9.70192139 7.19342909 15.93486448 14.4140625 20.08203125 C25.17557383 23.90220521 37.38128553 20.60894981 47.30175781 15.90966797 C57.92127075 10.68573816 57.92127075 10.68573816 67.8203125 4.24609375 C70.58426029 2.29367363 71.85239725 1.62841134 75 1 C81.55985355 8.01225724 82.641901 15.96827264 82.41015625 25.30859375 C81.22696005 35.95735954 76.60573502 44.73913675 70 53 C69.37996094 53.83144531 68.75992188 54.66289062 68.12109375 55.51953125 C65.83176802 58.19673538 63.48817779 60.07987301 60.625 62.125 C59.70976562 62.78757812 58.79453125 63.45015625 57.8515625 64.1328125 C50.49771439 68.94807195 50.49771439 68.94807195 46.859375 69.07421875 C43.87170101 67.34814659 42.86453605 64.81807227 41.25 61.8125 C40.90783447 61.19117188 40.56566895 60.56984375 40.21313477 59.9296875 C38.77619799 57.31910462 37.36981523 54.69263929 35.96630859 52.06396484 C30.72803344 41.48456819 30.72803344 41.48456819 22 34 C17.23632368 32.94140526 14.51328391 34.02400789 10.5 36.5 C6.50977488 39.35113521 3.44667616 42.62760031 0.41015625 46.4609375 C-0.05519531 46.96882813 -0.52054688 47.47671875 -1 48 C-1.66 48 -2.32 48 -3 48 C-3.32484375 48.78117187 -3.32484375 48.78117187 -3.65625 49.578125 C-5.54369469 52.97991484 -7.98585585 55.79409409 -10.5 58.75 C-10.99886719 59.35199219 -11.49773437 59.95398438 -12.01171875 60.57421875 C-13.29418243 62.09048277 -14.64260271 63.55043376 -16 65 C-16.66 65 -17.32 65 -18 65 C-22.61071373 55.77857254 -19.23407618 39.25526784 -16.32421875 29.70703125 C-12.55229927 19.14788204 -7.00896208 8.79745585 0 0 Z " fill="#F5B269" transform="translate(215,265)"/>
<path d="M0 0 C0.66 0.33 1.32 0.66 2 1 C-10.39948184 15.99101342 -26.25393284 26.46430285 -46 29 C-48.67810075 29.11196073 -51.31732686 29.04625299 -54 29 C-53.67 24.05 -53.34 19.1 -53 14 C-50.58494141 13.94005859 -50.58494141 13.94005859 -48.12109375 13.87890625 C-31.42989904 13.18757759 -13.54227703 10.74261618 0 0 Z " fill="#0A0504" transform="translate(271,235)"/>
<path d="M0 0 C1.32 0 2.64 0 4 0 C4.02735618 1.70824133 4.04655506 3.41661405 4.0625 5.125 C4.07410156 6.07632812 4.08570313 7.02765625 4.09765625 8.0078125 C4 11 4 11 3.52514648 13.80102539 C3.01040897 16.93659287 2.71944223 20.00684931 2.5 23.17578125 C2.4175 24.33400391 2.335 25.49222656 2.25 26.68554688 C2.1675 27.88244141 2.085 29.07933594 2 30.3125 C0.45236704 52.54763296 0.45236704 52.54763296 -1 54 C-2.66617115 54.04063832 -4.33388095 54.042721 -6 54 C-6.20586286 46.76672754 -5.51797041 39.63151992 -4.828125 32.4387207 C-4.62717648 30.33528238 -4.43426781 28.23121757 -4.2421875 26.12695312 C-1.99285199 1.99285199 -1.99285199 1.99285199 0 0 Z " fill="#E9AD6F" transform="translate(126,402)"/>
<path d="M0 0 C-0.25645546 3.57161135 -0.74947459 4.76958096 -3.43359375 7.23828125 C-4.42488281 7.92277344 -5.41617187 8.60726562 -6.4375 9.3125 C-7.42621094 10.00988281 -8.41492188 10.70726562 -9.43359375 11.42578125 C-12 13 -12 13 -14 13 C-14 13.66 -14 14.32 -14 15 C-10.37 15.66 -6.74 16.32 -3 17 C-2.67 18.32 -2.34 19.64 -2 21 C-3 22 -3 22 -6.625 22.1875 C-9.6741406 22.16568146 -11.67542873 21.80538494 -14.6875 20.9375 C-18.07069957 19.97999069 -19.71411382 19.87341045 -23 21 C-23.66 21.66 -24.32 22.32 -25 23 C-27.625 22.625 -27.625 22.625 -30 22 C-29.64380667 19.23883787 -29.16728031 18.15818546 -27.11401367 16.21655273 C-26.30681885 15.62817627 -25.49962402 15.0397998 -24.66796875 14.43359375 C-23.78689453 13.78326172 -22.90582031 13.13292969 -21.99804688 12.46289062 C-21.07056641 11.79451172 -20.14308594 11.12613281 -19.1875 10.4375 C-18.27162109 9.76525391 -17.35574219 9.09300781 -16.41210938 8.40039062 C-14.70295085 7.14684173 -12.99062531 5.89759148 -11.27416992 4.65405273 C-9.78270184 3.5692759 -8.3150538 2.45079897 -6.8762207 1.29711914 C-4.47200094 -0.36503045 -2.85973118 -0.23831093 0 0 Z " fill="#130A07" transform="translate(317,177)"/>
<path d="M0 0 C1.65 0.33 3.3 0.66 5 1 C4.04392863 5.23260762 2.47011704 9.19480093 0.9375 13.24609375 C-2.155279 22.33113207 -1.11699769 31.62519795 0 41 C-1.65 40.67 -3.3 40.34 -5 40 C-8.81555587 28.31486015 -8.04570645 16.17143033 -3 5 C-2.0284465 3.31659227 -1.03599648 1.64453309 0 0 Z " fill="#100806" transform="translate(215,159)"/>
<path d="M0 0 C2.475 0.495 2.475 0.495 5 1 C4.49430263 5.42485195 3.10058108 7.81561943 0 11 C-6.26627237 14.65532555 -10.90625553 15.11822907 -18 15 C-17.67 13.35 -17.34 11.7 -17 10 C-16.41992188 9.90203125 -15.83984375 9.8040625 -15.2421875 9.703125 C-10.02234564 8.70394735 -6.18474515 7.47027646 -2 4 C-0.61131484 1.89960669 -0.61131484 1.89960669 0 0 Z " fill="#100806" transform="translate(238,198)"/>
<path d="M0 0 C2.0625 0.4375 2.0625 0.4375 4 1 C3.45018084 7.04801071 2.09570426 12.30601106 0 18 C-1.32 17.67 -2.64 17.34 -4 17 C-2.94444444 2.94444444 -2.94444444 2.94444444 0 0 Z " fill="#170C09" transform="translate(201,148)"/>
<path d="M0 0 C2.125 0.375 2.125 0.375 4 1 C3.35729017 6.9129304 1.80996216 12.34244531 0 18 C-1.32 18 -2.64 18 -4 18 C-4.23506884 12.4758822 -3.7426156 7.28163124 -2 2 C-1.34 1.34 -0.68 0.68 0 0 Z " fill="#140B08" transform="translate(236,148)"/>
<path d="M0 0 C0.98484375 0.01804688 1.9696875 0.03609375 2.984375 0.0546875 C4.10585937 0.08949219 4.10585937 0.08949219 5.25 0.125 C4.92 1.775 4.59 3.425 4.25 5.125 C-0.28701494 6.57684478 -3.93061476 7.36009196 -8.75 7.125 C-9.08 5.475 -9.41 3.825 -9.75 2.125 C-6.40060119 0.09941119 -3.88037449 -0.09238987 0 0 Z " fill="#2F1B16" transform="translate(205.75,132.875)"/>
<path d="M0 0 C0.66 0.33 1.32 0.66 2 1 C0.68 2.65 -0.64 4.3 -2 6 C-1.34 6.33 -0.68 6.66 0 7 C-2.97 6.505 -2.97 6.505 -6 6 C-6 5.34 -6 4.68 -6 4 C-4.03852126 2.61061923 -2.03833424 1.2739589 0 0 Z " fill="#C1684D" transform="translate(309,186)"/>
</svg>
