<?xml version="1.0" encoding="UTF-8"?>
<svg version="1.1" xmlns="http://www.w3.org/2000/svg" width="512" height="512">
<path d="M0 0 C5.14303121 2.75285948 9.5056761 6.30668061 14 10 C15.20653012 10.96190158 16.4148701 11.92153735 17.625 12.87890625 C20.11667421 14.85627292 22.59472411 16.84927993 25.06640625 18.8515625 C29.23380925 22.21036492 33.48676288 25.45175411 37.75 28.6875 C44.2874975 33.65351214 50.69987461 38.73402047 57 44 C59.89856255 42.64881155 62.32343725 41.10301359 64.8359375 39.12890625 C65.56296875 38.56042969 66.29 37.99195313 67.0390625 37.40625 C67.80992187 36.7978125 68.58078125 36.189375 69.375 35.5625 C70.179375 34.93214844 70.98375 34.30179688 71.8125 33.65234375 C74.21101054 31.77160692 76.60589596 29.88634127 79 28 C80.22118163 27.04014503 81.4425186 26.08048763 82.6640625 25.12109375 C84.32602907 23.81531437 85.98794708 22.50947359 87.6496582 21.20336914 C88.79478721 20.30337681 89.94005515 19.40356123 91.08544922 18.50390625 C92.48063385 17.40796933 93.87543925 16.3115496 95.27001953 15.21484375 C97.69852138 13.30691005 100.13021196 11.4031037 102.5625 9.5 C103.32498047 8.89994141 104.08746094 8.29988281 104.87304688 7.68164062 C112.7588249 1.52329038 117.7043115 -1.25727539 128 0 C136.56699071 4.13051338 139.325932 11.62139096 142.58984375 20.00390625 C143.01624649 21.07817368 143.44264923 22.1524411 143.88197327 23.25926208 C145.24198793 26.69050885 146.59005151 30.12630158 147.9375 33.5625 C149.28400136 36.97262165 150.63293065 40.38177452 151.98231506 43.79075623 C152.81939958 45.9080807 153.65437548 48.02624057 154.48680115 50.145401 C156.92320322 56.33821211 159.44956142 62.48274541 162.07228088 68.59922791 C163 71 163 71 163 73 C163.79211884 72.88724731 164.58423767 72.77449463 165.40036011 72.6583252 C172.90151854 71.59184607 180.40358068 70.53207389 187.90672112 69.47963715 C191.7632096 68.93846636 195.61931013 68.39479896 199.47460938 67.84521484 C203.20203621 67.31395651 206.93036889 66.78953221 210.65939713 66.26963806 C212.07492814 66.07110252 213.49012869 65.87019437 214.90496445 65.66676331 C237.44975461 62.43006135 237.44975461 62.43006135 244 67 C248.02362414 71.00175662 250.13884868 74.50818427 250.18554688 80.23779297 C250.10839993 87.29434725 249.03382167 94.22256104 248.03125 101.1953125 C247.82887021 102.6382525 247.62709841 104.08127788 247.42590332 105.52438354 C246.89928886 109.28985191 246.36451956 113.05411654 245.82794189 116.81817627 C245.28002597 120.67235131 244.73997084 124.52762703 244.19921875 128.3828125 C243.14042714 135.92296304 242.07300294 143.46185722 241 151 C241.57436798 151.18719604 242.14873596 151.37439209 242.74050903 151.56726074 C247.38246541 153.09477838 251.95582073 154.70853347 256.4921875 156.53125 C257.67941406 157.00667236 258.86664063 157.48209473 260.08984375 157.97192383 C262.66862932 159.01179336 265.24637799 160.05422629 267.82421875 161.09643555 C268.82077484 161.49920464 268.82077484 161.49920464 269.83746338 161.91011047 C271.19418702 162.45846059 272.55075369 163.00719924 273.90716553 163.55632019 C277.87869304 165.15975866 281.8616715 166.72770458 285.8611145 168.26016235 C287.72781665 168.97676621 289.59075472 169.70315051 291.45361328 170.4296875 C293.76106382 171.32941212 296.07435022 172.21435737 298.39404297 173.08203125 C305.56821282 175.91234021 310.48583348 178.97166695 314 186 C315.0913808 191.6561996 314.94004268 196.24376476 312.19140625 201.37890625 C309.67056411 205.08431078 306.84328681 208.54006316 304 212 C303.03809842 213.20653012 302.07846265 214.4148701 301.12109375 215.625 C299.14372708 218.11667421 297.15072007 220.59472411 295.1484375 223.06640625 C291.78963508 227.23380925 288.54824589 231.48676288 285.3125 235.75 C280.34648786 242.2874975 275.26597953 248.69987461 270 255 C271.66296404 258.82481728 274.1584795 261.90020111 276.75 265.125 C277.74920779 266.38240749 278.74787994 267.64024078 279.74609375 268.8984375 C280.2757373 269.56456055 280.80538086 270.23068359 281.35107422 270.91699219 C284.19507138 274.5096756 287.00291966 278.1303797 289.8125 281.75 C293.4983141 286.49840959 297.18798996 291.2434549 300.8984375 295.97265625 C301.85012817 297.18840332 301.85012817 297.18840332 302.82104492 298.42871094 C304.03511691 299.97929288 305.25131401 301.52821405 306.4699707 303.07519531 C312.58148458 310.89206057 315.20523003 315.80403101 314 326 C310.05966194 335.02994139 299.41891081 338.30035409 290.8515625 341.72265625 C289.79899261 342.15001572 288.74642273 342.57737518 287.66195679 343.01768494 C284.31910742 344.3730092 280.97217032 345.71788752 277.625 347.0625 C275.38513965 347.96871665 273.14555358 348.87561155 270.90625 349.78320312 C265.85157151 351.82977497 260.79528659 353.87219453 255.73321533 355.90042114 C253.86528612 356.65189339 252.00011665 357.41025256 250.13739014 358.17453003 C249.23788635 358.54160065 248.33838257 358.90867126 247.41162109 359.28686523 C246.6096933 359.61669907 245.8077655 359.9465329 244.98153687 360.28636169 C243 361 243 361 241 361 C241.16912903 362.18817825 241.16912903 362.18817825 241.3416748 363.40036011 C242.40815393 370.90151854 243.46792611 378.40358068 244.52036285 385.90672112 C245.06153364 389.7632096 245.60520104 393.61931013 246.15478516 397.47460938 C246.68604349 401.20203621 247.21046779 404.93036889 247.73036194 408.65939713 C247.92889748 410.07492814 248.12980563 411.49012869 248.33323669 412.90496445 C251.56993865 435.44975461 251.56993865 435.44975461 247 442 C242.99824338 446.02362414 239.49181573 448.13884868 233.76220703 448.18554688 C226.70565275 448.10839993 219.77743896 447.03382167 212.8046875 446.03125 C211.3617475 445.82887021 209.91872212 445.62709841 208.47561646 445.42590332 C204.71014809 444.89928886 200.94588346 444.36451956 197.18182373 443.82794189 C193.32764869 443.28002597 189.47237297 442.73997084 185.6171875 442.19921875 C178.07703696 441.14042714 170.53814278 440.07300294 163 439 C162.3975647 440.8706311 162.3975647 440.8706311 161.78295898 442.77905273 C159.8906052 448.45030785 157.69526053 453.9866134 155.47265625 459.53515625 C155.04246689 460.61325058 154.61227753 461.69134491 154.16905212 462.80210876 C153.26349631 465.0691942 152.35661885 467.33575213 151.44848633 469.60180664 C150.06600993 473.05373599 148.68999583 476.5081934 147.31445312 479.96289062 C146.43007768 482.17463522 145.54532472 484.38622891 144.66015625 486.59765625 C144.25273697 487.62182144 143.84531769 488.64598663 143.42555237 489.70118713 C136.08846152 507.95576924 136.08846152 507.95576924 128 512 C122.37328535 513.08569159 117.77450164 512.94114924 112.65625 510.2265625 C108.93153708 507.70342195 105.46474862 504.86434916 102 502 C100.70664448 500.95329507 99.41235661 499.90774125 98.1171875 498.86328125 C96.10997607 497.23891265 94.10701015 495.61018932 92.11352539 493.96899414 C86.75774269 489.56431677 81.25421201 485.39352211 75.68408203 481.26513672 C69.97248577 477.01819874 64.45346003 472.57536053 59 468 C55.17518272 469.66296404 52.09979889 472.1584795 48.875 474.75 C47.61759251 475.74920779 46.35975922 476.74787994 45.1015625 477.74609375 C44.43543945 478.2757373 43.76931641 478.80538086 43.08300781 479.35107422 C39.4903244 482.19507138 35.8696203 485.00291966 32.25 487.8125 C27.50159041 491.4983141 22.7565451 495.18798996 18.02734375 498.8984375 C17.2168457 499.53289795 16.40634766 500.1673584 15.57128906 500.82104492 C14.02070712 502.03511691 12.47178595 503.25131401 10.92480469 504.4699707 C0.7479107 512.42664217 0.7479107 512.42664217 -6 512.375 C-7.010625 512.38273438 -8.02125 512.39046875 -9.0625 512.3984375 C-14.33503823 511.68327939 -17.3572355 509.04752747 -20.66622925 504.98654175 C-23.4698051 500.81084629 -25.11577516 496.05275666 -26.94140625 491.390625 C-27.39096176 490.26863708 -27.84051727 489.14664917 -28.30369568 487.99066162 C-29.7337939 484.41452319 -31.14835354 480.83247224 -32.5625 477.25 C-33.51655406 474.85636241 -34.47162208 472.4631287 -35.42773438 470.0703125 C-37.58250536 464.67199436 -39.72810526 459.27016539 -41.86160278 453.86340332 C-42.62782673 451.93612506 -43.4034699 450.01256788 -44.18795776 448.09265137 C-44.55510895 447.19292603 -44.92226013 446.29320068 -45.30053711 445.36621094 C-45.62839706 444.57083923 -45.95625702 443.77546753 -46.29405212 442.95599365 C-47 441 -47 441 -47 439 C-47.79211884 439.11275269 -48.58423767 439.22550537 -49.40036011 439.3416748 C-56.90151854 440.40815393 -64.40358068 441.46792611 -71.90672112 442.52036285 C-75.7632096 443.06153364 -79.61931013 443.60520104 -83.47460938 444.15478516 C-87.20203621 444.68604349 -90.93036889 445.21046779 -94.65939713 445.73036194 C-96.07492814 445.92889748 -97.49012869 446.12980563 -98.90496445 446.33323669 C-121.44975461 449.56993865 -121.44975461 449.56993865 -128 445 C-132.02362414 440.99824338 -134.13884868 437.49181573 -134.18554688 431.76220703 C-134.10839993 424.70565275 -133.03382167 417.77743896 -132.03125 410.8046875 C-131.82887021 409.3617475 -131.62709841 407.91872212 -131.42590332 406.47561646 C-130.89928886 402.71014809 -130.36451956 398.94588346 -129.82794189 395.18182373 C-129.28002597 391.32764869 -128.73997084 387.47237297 -128.19921875 383.6171875 C-127.14042714 376.07703696 -126.07300294 368.53814278 -125 361 C-125.62734039 360.82164108 -126.25468079 360.64328217 -126.90103149 360.45951843 C-132.47192181 358.83815755 -137.81543977 356.98508834 -143.1484375 354.70703125 C-143.88002075 354.39984665 -144.611604 354.09266205 -145.36535645 353.77616882 C-147.70402893 352.79323256 -150.03968158 351.80337578 -152.375 350.8125 C-155.59266322 349.45184074 -158.81149643 348.09398639 -162.03125 346.73828125 C-162.81345917 346.4085733 -163.59566833 346.07886536 -164.40158081 345.73916626 C-168.77113392 343.90603042 -173.15619938 342.14455023 -177.59375 340.48046875 C-178.50979004 340.13459717 -179.42583008 339.78872559 -180.36962891 339.43237305 C-181.96967247 338.83691735 -183.57574953 338.25727361 -185.18896484 337.69848633 C-191.13521614 335.47190135 -195.14203985 331.7159203 -198 326 C-199.08569159 320.37328535 -198.94114924 315.77450164 -196.2265625 310.65625 C-193.70342195 306.93153708 -190.86434916 303.46474862 -188 300 C-186.95329507 298.70664448 -185.90774125 297.41235661 -184.86328125 296.1171875 C-183.23891265 294.10997607 -181.61018932 292.10701015 -179.96899414 290.11352539 C-175.56431677 284.75774269 -171.39352211 279.25421201 -167.26513672 273.68408203 C-163.01819874 267.97248577 -158.57536053 262.45346003 -154 257 C-155.35118845 254.10143745 -156.89698641 251.67656275 -158.87109375 249.1640625 C-159.43957031 248.43703125 -160.00804687 247.71 -160.59375 246.9609375 C-161.2021875 246.19007813 -161.810625 245.41921875 -162.4375 244.625 C-163.06785156 243.820625 -163.69820312 243.01625 -164.34765625 242.1875 C-166.22839308 239.78898946 -168.11365873 237.39410404 -170 235 C-170.95985497 233.77881837 -171.91951237 232.5574814 -172.87890625 231.3359375 C-174.18468563 229.67397093 -175.49052641 228.01205292 -176.79663086 226.3503418 C-177.69662319 225.20521279 -178.59643877 224.05994485 -179.49609375 222.91455078 C-180.59203067 221.51936615 -181.6884504 220.12456075 -182.78515625 218.72998047 C-184.69308995 216.30147862 -186.5968963 213.86978804 -188.5 211.4375 C-189.40008789 210.2937793 -189.40008789 210.2937793 -190.31835938 209.12695312 C-196.47670962 201.2411751 -199.25727539 196.2956885 -198 186 C-193.86948662 177.43300929 -186.37860904 174.674068 -177.99609375 171.41015625 C-176.92182632 170.98375351 -175.8475589 170.55735077 -174.74073792 170.11802673 C-171.30949115 168.75801207 -167.87369842 167.40994849 -164.4375 166.0625 C-161.02737835 164.71599864 -157.61822548 163.36706935 -154.20924377 162.01768494 C-152.0919193 161.18060042 -149.97375943 160.34562452 -147.854599 159.51319885 C-141.66178789 157.07679678 -135.51725459 154.55043858 -129.40077209 151.92771912 C-127 151 -127 151 -125 151 C-125.11275269 150.20788116 -125.22550537 149.41576233 -125.3416748 148.59963989 C-126.40815393 141.09848146 -127.46792611 133.59641932 -128.52036285 126.09327888 C-129.06153364 122.2367904 -129.60520104 118.38068987 -130.15478516 114.52539062 C-130.68604349 110.79796379 -131.21046779 107.06963111 -131.73036194 103.34060287 C-131.92889748 101.92507186 -132.12980563 100.50987131 -132.33323669 99.09503555 C-135.56993865 76.55024539 -135.56993865 76.55024539 -131 70 C-126.99824338 65.97637586 -123.49181573 63.86115132 -117.76220703 63.81445312 C-110.70565275 63.89160007 -103.77743896 64.96617833 -96.8046875 65.96875 C-95.3617475 66.17112979 -93.91872212 66.37290159 -92.47561646 66.57409668 C-88.71014809 67.10071114 -84.94588346 67.63548044 -81.18182373 68.17205811 C-77.32764869 68.71997403 -73.47237297 69.26002916 -69.6171875 69.80078125 C-62.07703696 70.85957286 -54.53814278 71.92699706 -47 73 C-46.82164108 72.37265961 -46.64328217 71.74531921 -46.45951843 71.09896851 C-44.83815755 65.52807819 -42.98508834 60.18456023 -40.70703125 54.8515625 C-40.24625435 53.75418762 -40.24625435 53.75418762 -39.77616882 52.63464355 C-38.79323256 50.29597107 -37.80337578 47.96031842 -36.8125 45.625 C-35.45184074 42.40733678 -34.09398639 39.18850357 -32.73828125 35.96875 C-32.4085733 35.18654083 -32.07886536 34.40433167 -31.73916626 33.59841919 C-29.90603042 29.22886608 -28.14455023 24.84380062 -26.48046875 20.40625 C-26.13459717 19.49020996 -25.78872559 18.57416992 -25.43237305 17.63037109 C-24.83691735 16.03032753 -24.25727361 14.42425047 -23.69848633 12.81103516 C-19.71142751 2.16331505 -11.01592591 -2.06935841 0 0 Z " fill="#4193FE" transform="translate(198,0)"/>
<path d="M0 0 C5.14303121 2.75285948 9.5056761 6.30668061 14 10 C15.20653012 10.96190158 16.4148701 11.92153735 17.625 12.87890625 C20.11667421 14.85627292 22.59472411 16.84927993 25.06640625 18.8515625 C29.23380925 22.21036492 33.48676288 25.45175411 37.75 28.6875 C44.2874975 33.65351214 50.69987461 38.73402047 57 44 C59.89856255 42.64881155 62.32343725 41.10301359 64.8359375 39.12890625 C65.56296875 38.56042969 66.29 37.99195313 67.0390625 37.40625 C67.80992187 36.7978125 68.58078125 36.189375 69.375 35.5625 C70.179375 34.93214844 70.98375 34.30179688 71.8125 33.65234375 C74.21101054 31.77160692 76.60589596 29.88634127 79 28 C80.22118163 27.04014503 81.4425186 26.08048763 82.6640625 25.12109375 C84.32602907 23.81531437 85.98794708 22.50947359 87.6496582 21.20336914 C88.79478721 20.30337681 89.94005515 19.40356123 91.08544922 18.50390625 C92.48063385 17.40796933 93.87543925 16.3115496 95.27001953 15.21484375 C97.69852138 13.30691005 100.13021196 11.4031037 102.5625 9.5 C103.32498047 8.89994141 104.08746094 8.29988281 104.87304688 7.68164062 C112.7588249 1.52329038 117.7043115 -1.25727539 128 0 C136.56699071 4.13051338 139.325932 11.62139096 142.58984375 20.00390625 C143.01624649 21.07817368 143.44264923 22.1524411 143.88197327 23.25926208 C145.24198793 26.69050885 146.59005151 30.12630158 147.9375 33.5625 C149.28400136 36.97262165 150.63293065 40.38177452 151.98231506 43.79075623 C152.81939958 45.9080807 153.65437548 48.02624057 154.48680115 50.145401 C156.92320322 56.33821211 159.44956142 62.48274541 162.07228088 68.59922791 C163 71 163 71 163 73 C163.79211884 72.88724731 164.58423767 72.77449463 165.40036011 72.6583252 C172.90151854 71.59184607 180.40358068 70.53207389 187.90672112 69.47963715 C191.7632096 68.93846636 195.61931013 68.39479896 199.47460938 67.84521484 C203.20203621 67.31395651 206.93036889 66.78953221 210.65939713 66.26963806 C212.07492814 66.07110252 213.49012869 65.87019437 214.90496445 65.66676331 C237.44975461 62.43006135 237.44975461 62.43006135 244 67 C248.02362414 71.00175662 250.13884868 74.50818427 250.18554688 80.23779297 C250.10839993 87.29434725 249.03382167 94.22256104 248.03125 101.1953125 C247.82887021 102.6382525 247.62709841 104.08127788 247.42590332 105.52438354 C246.89928886 109.28985191 246.36451956 113.05411654 245.82794189 116.81817627 C245.28002597 120.67235131 244.73997084 124.52762703 244.19921875 128.3828125 C243.14042714 135.92296304 242.07300294 143.46185722 241 151 C241.57436798 151.18719604 242.14873596 151.37439209 242.74050903 151.56726074 C247.38246541 153.09477838 251.95582073 154.70853347 256.4921875 156.53125 C257.67941406 157.00667236 258.86664063 157.48209473 260.08984375 157.97192383 C262.66862932 159.01179336 265.24637799 160.05422629 267.82421875 161.09643555 C268.82077484 161.49920464 268.82077484 161.49920464 269.83746338 161.91011047 C271.19418702 162.45846059 272.55075369 163.00719924 273.90716553 163.55632019 C277.87869304 165.15975866 281.8616715 166.72770458 285.8611145 168.26016235 C287.72781665 168.97676621 289.59075472 169.70315051 291.45361328 170.4296875 C293.76106382 171.32941212 296.07435022 172.21435737 298.39404297 173.08203125 C305.56821282 175.91234021 310.48583348 178.97166695 314 186 C315.0913808 191.6561996 314.94004268 196.24376476 312.19140625 201.37890625 C309.67056411 205.08431078 306.84328681 208.54006316 304 212 C303.03809842 213.20653012 302.07846265 214.4148701 301.12109375 215.625 C299.14372708 218.11667421 297.15072007 220.59472411 295.1484375 223.06640625 C291.78963508 227.23380925 288.54824589 231.48676288 285.3125 235.75 C280.34648786 242.2874975 275.26597953 248.69987461 270 255 C271.66296404 258.82481728 274.1584795 261.90020111 276.75 265.125 C277.74920779 266.38240749 278.74787994 267.64024078 279.74609375 268.8984375 C280.2757373 269.56456055 280.80538086 270.23068359 281.35107422 270.91699219 C284.19507138 274.5096756 287.00291966 278.1303797 289.8125 281.75 C293.4983141 286.49840959 297.18798996 291.2434549 300.8984375 295.97265625 C301.85012817 297.18840332 301.85012817 297.18840332 302.82104492 298.42871094 C304.03511691 299.97929288 305.25131401 301.52821405 306.4699707 303.07519531 C312.58148458 310.89206057 315.20523003 315.80403101 314 326 C310.05966194 335.02994139 299.41891081 338.30035409 290.8515625 341.72265625 C289.79899261 342.15001572 288.74642273 342.57737518 287.66195679 343.01768494 C284.31910742 344.3730092 280.97217032 345.71788752 277.625 347.0625 C275.38513965 347.96871665 273.14555358 348.87561155 270.90625 349.78320312 C265.85157151 351.82977497 260.79528659 353.87219453 255.73321533 355.90042114 C253.86528612 356.65189339 252.00011665 357.41025256 250.13739014 358.17453003 C249.23788635 358.54160065 248.33838257 358.90867126 247.41162109 359.28686523 C246.6096933 359.61669907 245.8077655 359.9465329 244.98153687 360.28636169 C243 361 243 361 241 361 C241.16912903 362.18817825 241.16912903 362.18817825 241.3416748 363.40036011 C242.40815393 370.90151854 243.46792611 378.40358068 244.52036285 385.90672112 C245.06153364 389.7632096 245.60520104 393.61931013 246.15478516 397.47460938 C246.68604349 401.20203621 247.21046779 404.93036889 247.73036194 408.65939713 C247.92889748 410.07492814 248.12980563 411.49012869 248.33323669 412.90496445 C251.56993865 435.44975461 251.56993865 435.44975461 247 442 C242.99824338 446.02362414 239.49181573 448.13884868 233.76220703 448.18554688 C226.70565275 448.10839993 219.77743896 447.03382167 212.8046875 446.03125 C211.3617475 445.82887021 209.91872212 445.62709841 208.47561646 445.42590332 C204.71014809 444.89928886 200.94588346 444.36451956 197.18182373 443.82794189 C193.32764869 443.28002597 189.47237297 442.73997084 185.6171875 442.19921875 C178.07703696 441.14042714 170.53814278 440.07300294 163 439 C162.3975647 440.8706311 162.3975647 440.8706311 161.78295898 442.77905273 C159.8906052 448.45030785 157.69526053 453.9866134 155.47265625 459.53515625 C155.04246689 460.61325058 154.61227753 461.69134491 154.16905212 462.80210876 C153.26349631 465.0691942 152.35661885 467.33575213 151.44848633 469.60180664 C150.06600993 473.05373599 148.68999583 476.5081934 147.31445312 479.96289062 C146.43007768 482.17463522 145.54532472 484.38622891 144.66015625 486.59765625 C144.25273697 487.62182144 143.84531769 488.64598663 143.42555237 489.70118713 C136.08846152 507.95576924 136.08846152 507.95576924 128 512 C122.37328535 513.08569159 117.77450164 512.94114924 112.65625 510.2265625 C108.93153708 507.70342195 105.46474862 504.86434916 102 502 C100.70664448 500.95329507 99.41235661 499.90774125 98.1171875 498.86328125 C96.10997607 497.23891265 94.10701015 495.61018932 92.11352539 493.96899414 C86.75774269 489.56431677 81.25421201 485.39352211 75.68408203 481.26513672 C69.97248577 477.01819874 64.45346003 472.57536053 59 468 C55.17518272 469.66296404 52.09979889 472.1584795 48.875 474.75 C47.61759251 475.74920779 46.35975922 476.74787994 45.1015625 477.74609375 C44.43543945 478.2757373 43.76931641 478.80538086 43.08300781 479.35107422 C39.4903244 482.19507138 35.8696203 485.00291966 32.25 487.8125 C27.50159041 491.4983141 22.7565451 495.18798996 18.02734375 498.8984375 C17.2168457 499.53289795 16.40634766 500.1673584 15.57128906 500.82104492 C14.02070712 502.03511691 12.47178595 503.25131401 10.92480469 504.4699707 C0.7479107 512.42664217 0.7479107 512.42664217 -6 512.375 C-7.010625 512.38273438 -8.02125 512.39046875 -9.0625 512.3984375 C-14.33503823 511.68327939 -17.3572355 509.04752747 -20.66622925 504.98654175 C-23.4698051 500.81084629 -25.11577516 496.05275666 -26.94140625 491.390625 C-27.39096176 490.26863708 -27.84051727 489.14664917 -28.30369568 487.99066162 C-29.7337939 484.41452319 -31.14835354 480.83247224 -32.5625 477.25 C-33.51655406 474.85636241 -34.47162208 472.4631287 -35.42773438 470.0703125 C-37.58250536 464.67199436 -39.72810526 459.27016539 -41.86160278 453.86340332 C-42.62782673 451.93612506 -43.4034699 450.01256788 -44.18795776 448.09265137 C-44.55510895 447.19292603 -44.92226013 446.29320068 -45.30053711 445.36621094 C-45.62839706 444.57083923 -45.95625702 443.77546753 -46.29405212 442.95599365 C-47 441 -47 441 -47 439 C-47.79211884 439.11275269 -48.58423767 439.22550537 -49.40036011 439.3416748 C-56.90151854 440.40815393 -64.40358068 441.46792611 -71.90672112 442.52036285 C-75.7632096 443.06153364 -79.61931013 443.60520104 -83.47460938 444.15478516 C-87.20203621 444.68604349 -90.93036889 445.21046779 -94.65939713 445.73036194 C-96.07492814 445.92889748 -97.49012869 446.12980563 -98.90496445 446.33323669 C-121.44975461 449.56993865 -121.44975461 449.56993865 -128 445 C-132.02362414 440.99824338 -134.13884868 437.49181573 -134.18554688 431.76220703 C-134.10839993 424.70565275 -133.03382167 417.77743896 -132.03125 410.8046875 C-131.82887021 409.3617475 -131.62709841 407.91872212 -131.42590332 406.47561646 C-130.89928886 402.71014809 -130.36451956 398.94588346 -129.82794189 395.18182373 C-129.28002597 391.32764869 -128.73997084 387.47237297 -128.19921875 383.6171875 C-127.14042714 376.07703696 -126.07300294 368.53814278 -125 361 C-125.62734039 360.82164108 -126.25468079 360.64328217 -126.90103149 360.45951843 C-132.47192181 358.83815755 -137.81543977 356.98508834 -143.1484375 354.70703125 C-143.88002075 354.39984665 -144.611604 354.09266205 -145.36535645 353.77616882 C-147.70402893 352.79323256 -150.03968158 351.80337578 -152.375 350.8125 C-155.59266322 349.45184074 -158.81149643 348.09398639 -162.03125 346.73828125 C-162.81345917 346.4085733 -163.59566833 346.07886536 -164.40158081 345.73916626 C-168.77113392 343.90603042 -173.15619938 342.14455023 -177.59375 340.48046875 C-178.50979004 340.13459717 -179.42583008 339.78872559 -180.36962891 339.43237305 C-181.96967247 338.83691735 -183.57574953 338.25727361 -185.18896484 337.69848633 C-191.13521614 335.47190135 -195.14203985 331.7159203 -198 326 C-199.08569159 320.37328535 -198.94114924 315.77450164 -196.2265625 310.65625 C-193.70342195 306.93153708 -190.86434916 303.46474862 -188 300 C-186.95329507 298.70664448 -185.90774125 297.41235661 -184.86328125 296.1171875 C-183.23891265 294.10997607 -181.61018932 292.10701015 -179.96899414 290.11352539 C-175.56431677 284.75774269 -171.39352211 279.25421201 -167.26513672 273.68408203 C-163.01819874 267.97248577 -158.57536053 262.45346003 -154 257 C-155.35118845 254.10143745 -156.89698641 251.67656275 -158.87109375 249.1640625 C-159.43957031 248.43703125 -160.00804687 247.71 -160.59375 246.9609375 C-161.2021875 246.19007813 -161.810625 245.41921875 -162.4375 244.625 C-163.06785156 243.820625 -163.69820312 243.01625 -164.34765625 242.1875 C-166.22839308 239.78898946 -168.11365873 237.39410404 -170 235 C-170.95985497 233.77881837 -171.91951237 232.5574814 -172.87890625 231.3359375 C-174.18468563 229.67397093 -175.49052641 228.01205292 -176.79663086 226.3503418 C-177.69662319 225.20521279 -178.59643877 224.05994485 -179.49609375 222.91455078 C-180.59203067 221.51936615 -181.6884504 220.12456075 -182.78515625 218.72998047 C-184.69308995 216.30147862 -186.5968963 213.86978804 -188.5 211.4375 C-189.40008789 210.2937793 -189.40008789 210.2937793 -190.31835938 209.12695312 C-196.47670962 201.2411751 -199.25727539 196.2956885 -198 186 C-193.86948662 177.43300929 -186.37860904 174.674068 -177.99609375 171.41015625 C-176.92182632 170.98375351 -175.8475589 170.55735077 -174.74073792 170.11802673 C-171.30949115 168.75801207 -167.87369842 167.40994849 -164.4375 166.0625 C-161.02737835 164.71599864 -157.61822548 163.36706935 -154.20924377 162.01768494 C-152.0919193 161.18060042 -149.97375943 160.34562452 -147.854599 159.51319885 C-141.66178789 157.07679678 -135.51725459 154.55043858 -129.40077209 151.92771912 C-127 151 -127 151 -125 151 C-125.11275269 150.20788116 -125.22550537 149.41576233 -125.3416748 148.59963989 C-126.40815393 141.09848146 -127.46792611 133.59641932 -128.52036285 126.09327888 C-129.06153364 122.2367904 -129.60520104 118.38068987 -130.15478516 114.52539062 C-130.68604349 110.79796379 -131.21046779 107.06963111 -131.73036194 103.34060287 C-131.92889748 101.92507186 -132.12980563 100.50987131 -132.33323669 99.09503555 C-135.56993865 76.55024539 -135.56993865 76.55024539 -131 70 C-126.99824338 65.97637586 -123.49181573 63.86115132 -117.76220703 63.81445312 C-110.70565275 63.89160007 -103.77743896 64.96617833 -96.8046875 65.96875 C-95.3617475 66.17112979 -93.91872212 66.37290159 -92.47561646 66.57409668 C-88.71014809 67.10071114 -84.94588346 67.63548044 -81.18182373 68.17205811 C-77.32764869 68.71997403 -73.47237297 69.26002916 -69.6171875 69.80078125 C-62.07703696 70.85957286 -54.53814278 71.92699706 -47 73 C-46.82164108 72.37265961 -46.64328217 71.74531921 -46.45951843 71.09896851 C-44.83815755 65.52807819 -42.98508834 60.18456023 -40.70703125 54.8515625 C-40.24625435 53.75418762 -40.24625435 53.75418762 -39.77616882 52.63464355 C-38.79323256 50.29597107 -37.80337578 47.96031842 -36.8125 45.625 C-35.45184074 42.40733678 -34.09398639 39.18850357 -32.73828125 35.96875 C-32.4085733 35.18654083 -32.07886536 34.40433167 -31.73916626 33.59841919 C-29.90603042 29.22886608 -28.14455023 24.84380062 -26.48046875 20.40625 C-26.13459717 19.49020996 -25.78872559 18.57416992 -25.43237305 17.63037109 C-24.83691735 16.03032753 -24.25727361 14.42425047 -23.69848633 12.81103516 C-19.71142751 2.16331505 -11.01592591 -2.06935841 0 0 Z M0 42 C-1.62658251 45.89543183 -3.25253659 49.7911239 -4.87744141 53.68725586 C-6.25419155 56.98831693 -7.63306499 60.28848072 -9.01318359 63.58813477 C-12.00240646 70.74318107 -14.98314526 77.8979069 -17.82421875 85.11328125 C-18.2219751 86.1172998 -18.61973145 87.12131836 -19.02954102 88.15576172 C-19.73764552 89.95387687 -20.43548872 91.75608194 -21.12084961 93.56298828 C-23.0177476 98.36156952 -24.90005138 101.65323683 -29 105 C-40.36491403 108.78830468 -54.1718719 104.8836043 -65.61328125 103.01953125 C-76.68713801 101.21841114 -87.83342263 100.06348356 -99 99 C-97.97748887 107.94516454 -96.90167282 116.88023762 -95.7109375 125.8046875 C-95.48954827 127.47655786 -95.26819434 129.14843289 -95.046875 130.8203125 C-94.71019383 133.36117246 -94.37137799 135.9016629 -94.02636719 138.44140625 C-90.66233261 163.26892907 -90.66233261 163.26892907 -93.5 169.0625 C-93.995 169.701875 -94.49 170.34125 -95 171 C-95 171.66 -95 172.32 -95 173 C-95.62511475 173.24838623 -96.25022949 173.49677246 -96.89428711 173.75268555 C-101.16759572 175.46892906 -105.42912514 177.21361062 -109.69140625 178.95703125 C-110.63249741 179.3418718 -111.57358856 179.72671234 -112.54319763 180.12321472 C-114.53445569 180.9375905 -116.52567072 181.7520715 -118.5168457 182.56665039 C-121.52733262 183.7981145 -124.53807319 185.02895696 -127.54882812 186.25976562 C-137.04508901 190.14337644 -146.53984506 194.02902418 -156 198 C-154.28203695 201.57956532 -152.19866893 204.48713617 -149.75 207.625 C-149.31671387 208.18276123 -148.88342773 208.74052246 -148.43701172 209.31518555 C-146.96158312 211.21293819 -145.48109423 213.10666633 -144 215 C-137.00483975 223.95671112 -130.01595606 232.91510336 -123.1875 242 C-122.67783691 242.67651611 -122.16817383 243.35303223 -121.64306641 244.05004883 C-117.81725819 249.16192635 -116.10089752 252.5243214 -117 259 C-118.85381432 264.15014654 -121.32611076 268.08947859 -124.8125 272.3125 C-125.79892125 273.53716139 -126.78455932 274.7624539 -127.76953125 275.98828125 C-128.29240723 276.63490723 -128.8152832 277.2815332 -129.35400391 277.94775391 C-132.28076335 281.59686987 -135.13611305 285.30148335 -138 289 C-141.42186412 293.41486828 -144.84930203 297.82350176 -148.3359375 302.1875 C-148.85027344 302.83332031 -149.36460937 303.47914063 -149.89453125 304.14453125 C-150.85918994 305.35353621 -151.82775811 306.55943536 -152.80078125 307.76171875 C-155.24634036 310.53728303 -155.24634036 310.53728303 -156 314 C-155.09572266 314.3717334 -154.19144531 314.7434668 -153.25976562 315.12646484 C-149.0062218 316.87527517 -144.75305811 318.62500879 -140.5 320.375 C-139.34901321 320.84853409 -139.34901321 320.84853409 -138.17477417 321.33163452 C-127.12767454 325.87748243 -116.09030158 330.44528323 -105.07421875 335.06591797 C-104.17445312 335.44248535 -103.2746875 335.81905273 -102.34765625 336.20703125 C-101.57429932 336.5316333 -100.80094238 336.85623535 -100.00415039 337.19067383 C-98.35945822 337.85484176 -96.68271157 338.43909614 -95 339 C-93.875 340.9375 -93.875 340.9375 -93 343 C-92.67 343.66 -92.34 344.32 -92 345 C-91.04548911 355.64646758 -92.96645464 366.19838519 -94.51611328 376.69433594 C-95.24759529 381.69144308 -95.94694776 386.69297345 -96.64160156 391.6953125 C-97.00089564 394.28171564 -97.36343922 396.86766979 -97.72949219 399.453125 C-97.89481445 400.63648438 -98.06013672 401.81984375 -98.23046875 403.0390625 C-98.37895264 404.09303223 -98.52743652 405.14700195 -98.68041992 406.23291016 C-99.07648704 409.1980172 -99.07648704 409.1980172 -99 413 C-91.9006427 412.32488401 -84.82520668 411.51678363 -77.75 410.625 C-76.71657471 410.49633545 -75.68314941 410.3676709 -74.6184082 410.23510742 C-69.38361525 409.57742207 -64.155633 408.88929924 -58.93359375 408.13671875 C-57.96647461 407.99862793 -56.99935547 407.86053711 -56.00292969 407.71826172 C-54.19138639 407.45718082 -52.38073623 407.18978397 -50.57128906 406.91455078 C-34.77342688 404.64158683 -34.77342688 404.64158683 -28.9375 407.5 C-27.9784375 408.2425 -27.9784375 408.2425 -27 409 C-26.34 409 -25.68 409 -25 409 C-24.73590332 409.66700928 -24.47180664 410.33401855 -24.19970703 411.02124023 C-22.76607702 414.58080877 -21.28701381 418.12068967 -19.8046875 421.66015625 C-19.16795284 423.18322756 -18.53131926 424.70634113 -17.89477539 426.22949219 C-17.56430206 427.02013062 -17.23382874 427.81076904 -16.89334106 428.62536621 C-11.14911029 442.37268467 -5.4524577 456.13368585 0 470 C3.61707406 468.38860208 6.5097127 466.18105107 9.625 463.75 C10.45837891 463.10224609 10.45837891 463.10224609 11.30859375 462.44140625 C12.53795916 461.48523315 13.76608761 460.52746817 14.99316406 459.56835938 C17.12575761 457.90171936 19.26173232 456.23949002 21.3984375 454.578125 C22.15342529 453.9910376 22.90841309 453.4039502 23.6862793 452.79907227 C24.44980713 452.20537842 25.21333496 451.61168457 26 451 C27.53517368 449.80601199 29.07033013 448.61200183 30.60546875 447.41796875 C31.34587402 446.84224121 32.0862793 446.26651367 32.84912109 445.67333984 C34.23022129 444.59887211 35.61080062 443.52373432 36.99072266 442.44775391 C38.76263705 441.06672337 40.53718168 439.68915035 42.3125 438.3125 C43.29863281 437.54550781 44.28476563 436.77851563 45.30078125 435.98828125 C49.92845226 432.57947583 52.85373386 430.67547614 58.7421875 430.6015625 C64.93145945 431.69378696 69.55674163 434.88630043 74.3125 438.8125 C75.53716139 439.79892125 76.7624539 440.78455932 77.98828125 441.76953125 C78.95822021 442.55384521 78.95822021 442.55384521 79.94775391 443.35400391 C83.59686987 446.28076335 87.30148335 449.13611305 91 452 C95.41486828 455.42186412 99.82350176 458.84930203 104.1875 462.3359375 C104.83332031 462.85027344 105.47914063 463.36460937 106.14453125 463.89453125 C107.35353621 464.85918994 108.55943536 465.82775811 109.76171875 466.80078125 C112.53728303 469.24634036 112.53728303 469.24634036 116 470 C116.23945847 469.40833038 116.47891693 468.81666077 116.72563171 468.20706177 C119.23563848 462.00747695 121.75134565 455.81022714 124.27026367 449.61425781 C125.20757824 447.30657483 126.1434743 444.99831513 127.07788086 442.68945312 C128.42702917 439.35651714 129.7813921 436.0257401 131.13671875 432.6953125 C131.54838791 431.67511017 131.96005707 430.65490784 132.38420105 429.60379028 C134.70600923 423.91437388 137.21751428 418.41224444 140.07722473 412.97164917 C141.14129775 411.06091342 141.14129775 411.06091342 141 409 C151.8463111 403.57684445 163.89121562 406.24543371 175.625 407.8125 C177.03737851 407.99490327 178.44981406 408.1768654 179.86230469 408.35839844 C188.43654109 409.47164234 196.99372564 410.68528851 205.51806641 412.13598633 C208.7600072 412.68425008 211.6946228 413 215 413 C214.01939389 404.94749333 212.9966198 396.90323559 211.88720703 388.86743164 C211.24926178 384.24614982 210.62286374 379.62333606 210 375 C209.89123535 374.19788086 209.7824707 373.39576172 209.67041016 372.56933594 C206.20009233 346.62746883 206.20009233 346.62746883 211 340 C222.3981956 332.38078404 236.72064372 328.11031356 249.375 323.0625 C251.57573812 322.17957787 253.77626073 321.29611835 255.9765625 320.41210938 C261.31524132 318.26854233 266.65653515 316.13160646 272 314 C270.28203695 310.42043468 268.19866893 307.51286383 265.75 304.375 C265.31671387 303.81723877 264.88342773 303.25947754 264.43701172 302.68481445 C262.96158312 300.78706181 261.48109423 298.89333367 260 297 C255.32129164 291.00930962 250.65041215 285.01269282 246 279 C245.41234863 278.24058105 244.82469727 277.48116211 244.21923828 276.69873047 C242.53415654 274.51335329 240.85918151 272.32063759 239.1875 270.125 C238.67783691 269.4652417 238.16817383 268.8054834 237.64306641 268.12573242 C233.91532627 263.19643069 232.46427438 259.43797593 232.61328125 253.1796875 C234.07616016 244.93437 242.76011876 237.20456642 247.91796875 230.83203125 C251.51513689 226.37876607 254.99245545 221.83986733 258.46484375 217.2890625 C260.30508474 214.88670887 262.17747646 212.512692 264.06640625 210.1484375 C264.5761499 209.50849854 265.08589355 208.86855957 265.61108398 208.20922852 C266.60266663 206.96691187 267.598137 205.72768604 268.59790039 204.49194336 C271.16978663 201.60293205 271.16978663 201.60293205 272 198 C271.11249557 197.6408123 271.11249557 197.6408123 270.20706177 197.27436829 C264.00747695 194.76436152 257.81022714 192.24865435 251.61425781 189.72973633 C249.30657483 188.79242176 246.99831513 187.8565257 244.68945312 186.92211914 C241.35651714 185.57297083 238.0257401 184.2186079 234.6953125 182.86328125 C233.165009 182.24577751 233.165009 182.24577751 231.60379028 181.61579895 C225.91437388 179.29399077 220.41224444 176.78248572 214.97164917 173.92277527 C213.06091342 172.85870225 213.06091342 172.85870225 211 173 C205.8197174 162.98478697 207.81449091 151.90265524 209.64477539 141.18920898 C210.89558407 133.84876548 211.93234046 126.48610262 212.91516113 119.10595703 C213.09589777 117.74982465 213.27793348 116.39386473 213.46130371 115.03808594 C213.72054905 113.12082685 213.97558434 111.20299995 214.23046875 109.28515625 C214.37895264 108.17019775 214.52743652 107.05523926 214.68041992 105.90649414 C215.0728634 102.82466225 215.0728634 102.82466225 215 99 C207.26590079 99.95087525 199.53526345 100.92017659 191.81253052 101.95953369 C188.49043473 102.4064977 185.16747035 102.84683359 181.84448242 103.28710938 C180.1507452 103.51313698 178.45738376 103.7419978 176.7644043 103.97363281 C149.47987376 107.69794631 149.47987376 107.69794631 144.77856445 104.47900391 C143.89817505 103.74689697 143.89817505 103.74689697 143 103 C142.34 103 141.68 103 141 103 C140.56735085 101.91578262 140.56735085 101.91578262 140.1259613 100.80966187 C139.08736131 98.21799661 138.03881612 95.63076376 136.98461914 93.04541016 C136.39874779 91.60834213 136.39874779 91.60834213 135.80104065 90.14224243 C135.3832988 89.11819305 134.96555695 88.09414368 134.53515625 87.0390625 C133.88419228 85.44316788 133.88419228 85.44316788 133.22007751 83.81503296 C132.30315155 81.56740231 131.38612132 79.31981418 130.46899414 77.07226562 C129.07056251 73.64476091 127.67297137 70.21691424 126.27539062 66.7890625 C125.38286471 64.6015412 124.49028824 62.41404052 123.59765625 60.2265625 C123.18193863 59.20656158 122.76622101 58.18656067 122.33790588 57.13565063 C120.26976236 52.07025554 118.17550658 47.02026502 116 42 C112.38292594 43.61139792 109.4902873 45.81894893 106.375 48.25 C105.81723877 48.68328613 105.25947754 49.11657227 104.68481445 49.56298828 C102.78706181 51.03841688 100.89333367 52.51890577 99 54 C93.00930962 58.67870836 87.01269282 63.34958785 81 68 C80.24058105 68.58765137 79.48116211 69.17530273 78.69873047 69.78076172 C76.51335329 71.46584346 74.32063759 73.14081849 72.125 74.8125 C71.4652417 75.32216309 70.8054834 75.83182617 70.12573242 76.35693359 C65.2746837 80.0254956 61.4103228 81.60309219 55.234375 81.4453125 C50.37430844 80.47669784 46.79819123 77.01052562 43 74 C41.66526698 72.96849164 40.32922749 71.93867255 38.9921875 70.91015625 C35.1258806 67.92705067 31.27913169 64.91965704 27.43603516 61.90673828 C23.3621265 58.71800039 19.27387382 55.54773658 15.1875 52.375 C13.72234225 51.23738345 12.25747955 50.09938677 10.79296875 48.9609375 C10.13603027 48.45143555 9.4790918 47.94193359 8.80224609 47.41699219 C7.21817628 46.17153822 5.66317607 44.88929649 4.11328125 43.6015625 C2.17627106 41.79866684 2.17627106 41.79866684 0 42 Z " fill="#232328" transform="translate(198,0)"/>
<path d="M0 0 C4.41957475 1.80800785 7.87887425 4.28851822 10.5 8.3125 C12.16835653 12.41387647 12.92125316 15.67609056 12 20 C7.79315333 28.25989292 1.07492716 34.34799269 -5.421875 40.81005859 C-6.69589308 42.08814647 -7.96927309 43.36687065 -9.24206543 44.6461792 C-12.68542761 48.10316788 -16.13815105 51.5506601 -19.59309387 54.99607038 C-23.21207318 58.60743388 -26.8237041 62.2261345 -30.43652344 65.84365845 C-36.5004747 71.91305956 -42.5707064 77.97612535 -48.64453125 84.03564453 C-55.66606475 91.04083098 -62.67669581 98.05678918 -69.68180466 105.07839715 C-75.70189257 111.11209554 -81.72780262 117.13993244 -87.75862503 123.16290152 C-91.35843589 126.75803631 -94.95619126 130.35516511 -98.54870605 133.95759201 C-101.92363753 137.34118517 -105.30581522 140.71736328 -108.69374084 144.08794403 C-109.93592797 145.32616304 -111.17556671 146.56694463 -112.41246033 147.81045151 C-114.10049045 149.50667345 -115.79748043 151.19339363 -117.49707031 152.87802124 C-118.22884302 153.6198322 -118.22884302 153.6198322 -118.97539902 154.37662923 C-123.02223901 158.35460149 -126.75525616 160.27371223 -132.4375 160.375 C-133.15808594 160.40335938 -133.87867188 160.43171875 -134.62109375 160.4609375 C-140.79115977 159.26542389 -145.42339879 153.8691577 -149.69213867 149.58251953 C-150.33193161 148.94783752 -150.97172455 148.31315552 -151.63090515 147.65924072 C-153.73176124 145.57221766 -155.82517362 143.47791657 -157.91796875 141.3828125 C-159.38172364 139.92294718 -160.84570106 138.46330496 -162.30989075 137.00387573 C-165.37203732 133.94917725 -168.43029719 130.89064982 -171.48608398 127.82958984 C-175.39830527 123.91156725 -179.32178966 120.00504379 -183.24848461 116.10153389 C-186.27261549 113.09214596 -189.2897792 110.07584769 -192.30498695 107.05752182 C-193.74870485 105.61431656 -195.19478151 104.17346685 -196.64327049 102.7350502 C-198.66812148 100.72256051 -200.68316848 98.70072662 -202.69604492 96.67626953 C-203.29298157 96.08697662 -203.88991821 95.49768372 -204.50494385 94.89053345 C-208.90355549 90.43590518 -211.67714887 86.50209624 -212.5 80.125 C-212.28356975 75.2129744 -210.19605815 71.64802597 -207 68 C-203.21421831 64.72879058 -199.06473191 63.24329424 -194.00439453 63.57063293 C-185.06281115 65.48603499 -178.2237543 74.39264886 -172.0625 80.64453125 C-170.93116135 81.78147484 -169.79915132 82.91775072 -168.66650391 84.0533905 C-165.70729439 87.02397807 -162.75721138 90.00346682 -159.809021 92.98498535 C-156.79096518 96.0338948 -153.76425023 99.07418202 -150.73828125 102.11523438 C-144.81707531 108.06848005 -138.90549553 114.03116976 -133 120 C-129.32007089 118.45543677 -126.99176757 116.23128919 -124.19351196 113.41383362 C-123.49032272 112.71003261 -123.49032272 112.71003261 -122.77292764 111.99201339 C-121.20531613 110.42067531 -119.64497394 108.8423131 -118.08447266 107.26391602 C-116.96108007 106.13504723 -115.83722292 105.00664059 -114.7129364 103.87866211 C-112.29344803 101.44946415 -109.87705395 99.0172437 -107.46294022 96.58270454 C-103.64431469 92.73226108 -99.81753633 88.88999127 -95.98934937 85.04905701 C-86.48122127 75.50684411 -76.98239528 65.9553856 -67.48846436 56.39904785 C-60.11150667 48.97362506 -52.73138439 41.55141819 -45.34063947 34.13971466 C-41.53579377 30.32335313 -37.7379969 26.50015486 -33.94534707 22.67167485 C-31.58220638 20.28931929 -29.21281004 17.91326234 -26.84163857 15.53890228 C-25.74495446 14.43820484 -24.65085257 13.33492749 -23.55957222 12.2288723 C-22.06675506 10.71658043 -20.56487043 9.21389221 -19.06045532 7.71315002 C-17.80447005 6.44912023 -17.80447005 6.44912023 -16.52311134 5.15955448 C-11.58378953 0.93194297 -6.52749597 -1.2834964 0 0 Z " fill="#232329" transform="translate(356,176)"/>
</svg>
